<?xml version="1.0" encoding="UTF-8" standalone="no"?>
<!DOCTYPE svg PUBLIC "-//W3C//DTD SVG 1.1//EN" "http://www.w3.org/Graphics/SVG/1.1/DTD/svg11.dtd">
<svg version="1.1" xmlns="http://www.w3.org/2000/svg" xmlns:xlink="http://www.w3.org/1999/xlink" preserveAspectRatio="xMidYMid meet" viewBox="0 0 512 512" width="512" height="512"><defs><path d="M504 256C504 392.87 392.87 504 256 504C119.13 504 8 392.87 8 256C8 119.13 119.13 8 256 8C392.87 8 504 119.13 504 256Z" id="c3oPoqEu"></path><path d="M482 256C482 380.73 380.73 482 256 482C131.27 482 30 380.73 30 256C30 131.27 131.27 30 256 30C380.73 30 482 131.27 482 256Z" id="b2wnh8lw1i"></path><linearGradient id="gradienti9If2tTiY" gradientUnits="userSpaceOnUse" x1="0" y1="0" x2="256" y2="256"><stop style="stop-color: #686868;stop-opacity: 1" offset="0%"></stop><stop style="stop-color: #2b2b2b;stop-opacity: 1" offset="100%"></stop></linearGradient><path d="M269.03 129.56L275.51 130.44L281.94 131.63L288.33 133.13L294.67 134.93L300.94 136.99L307.15 139.32L313.29 141.89L319.34 144.68L325.3 147.69L331.16 150.9L336.92 154.28L342.57 157.83L348.1 161.52L353.5 165.35L358.76 169.3L363.89 173.34L368.87 177.48L373.69 181.68L378.35 185.93L382.83 190.23L387.14 194.54L391.26 198.86L395.19 203.18L398.92 207.46L402.45 211.71L405.75 215.9L408.84 220.02L411.7 224.04L414.31 227.97L416.69 231.77L418.81 235.44L420.67 238.96L422.27 242.31L423.59 245.48L424.64 248.45L425.39 251.2L425.85 253.72L426 256L425.85 258.28L425.39 260.8L424.64 263.55L423.59 266.52L422.27 269.69L420.67 273.04L418.81 276.56L416.69 280.23L414.31 284.03L411.7 287.96L408.84 291.98L405.75 296.1L402.45 300.29L398.92 304.54L395.19 308.82L391.26 313.14L387.14 317.46L382.83 321.77L378.35 326.07L373.69 330.32L368.87 334.52L363.89 338.66L358.76 342.7L353.5 346.65L348.1 350.48L342.57 354.17L336.92 357.72L331.16 361.1L325.3 364.31L319.34 367.32L313.29 370.11L307.15 372.68L300.94 375.01L294.67 377.07L288.33 378.87L281.94 380.37L275.51 381.56L269.03 382.44L262.53 382.97L256 383.16L249.47 382.97L242.97 382.44L236.49 381.56L230.06 380.37L223.67 378.87L217.33 377.07L211.06 375.01L204.85 372.68L198.71 370.11L192.66 367.32L186.7 364.31L180.84 361.1L175.08 357.72L169.43 354.17L163.9 350.48L158.5 346.65L153.24 342.7L148.11 338.66L143.13 334.52L138.31 330.32L133.65 326.07L129.17 321.77L124.86 317.46L120.74 313.14L116.81 308.82L113.08 304.54L109.55 300.29L106.25 296.1L103.16 291.98L100.3 287.96L97.69 284.03L95.31 280.23L93.19 276.56L91.33 273.04L89.73 269.69L88.41 266.52L87.36 263.55L86.61 260.8L86.15 258.28L86 256L86.15 253.72L86.61 251.2L87.36 248.45L88.41 245.48L89.73 242.31L91.33 238.96L93.19 235.44L95.31 231.77L97.69 227.97L100.3 224.04L103.16 220.02L106.25 215.9L109.55 211.71L113.08 207.46L116.81 203.18L120.74 198.86L124.86 194.54L129.17 190.23L133.65 185.93L138.31 181.68L143.13 177.48L148.11 173.34L153.24 169.3L158.5 165.35L163.9 161.52L169.43 157.83L175.08 154.28L180.84 150.9L186.7 147.69L192.66 144.68L198.71 141.89L204.85 139.32L211.06 136.99L217.33 134.93L223.67 133.13L230.06 131.63L236.49 130.44L242.97 129.56L249.47 129.03L256 128.85L262.53 129.03L269.03 129.56ZM242.21 172.34L238.87 172.95L235.57 173.69L232.33 174.56L229.13 175.55L226 176.66L222.92 177.89L219.9 179.24L216.94 180.69L214.05 182.26L211.23 183.93L208.48 185.71L205.8 187.59L203.2 189.56L200.68 191.64L198.25 193.8L195.9 196.06L193.63 198.4L191.46 200.83L189.38 203.35L187.4 205.94L185.52 208.61L183.74 211.35L182.06 214.16L180.49 217.04L179.03 219.99L177.68 223L176.45 226.08L175.33 229.21L174.34 232.39L173.47 235.63L172.73 238.92L172.11 242.25L171.63 245.63L171.28 249.05L171.07 252.51L171 256L171.07 259.49L171.28 262.95L171.63 266.37L172.11 269.75L172.73 273.08L173.47 276.37L174.34 279.61L175.33 282.79L176.45 285.92L177.68 289L179.03 292.01L180.49 294.96L182.06 297.84L183.74 300.65L185.52 303.39L187.4 306.06L189.38 308.65L191.46 311.17L193.63 313.6L195.9 315.94L198.25 318.2L200.68 320.36L203.2 322.44L205.8 324.41L208.48 326.29L211.23 328.07L214.05 329.74L216.94 331.31L219.9 332.76L222.92 334.11L226 335.34L229.13 336.45L232.33 337.44L235.57 338.31L238.87 339.05L242.21 339.66L245.6 340.14L249.03 340.49L252.5 340.7L256 340.77L259.5 340.7L262.97 340.49L266.4 340.14L269.79 339.66L273.13 339.05L276.43 338.31L279.67 337.44L282.87 336.45L286 335.34L289.08 334.11L292.1 332.76L295.06 331.31L297.95 329.74L300.77 328.07L303.52 326.29L306.2 324.41L308.8 322.44L311.32 320.36L313.75 318.2L316.1 315.94L318.37 313.6L320.54 311.17L322.62 308.65L324.6 306.06L326.48 303.39L328.26 300.65L329.94 297.84L331.51 294.96L332.97 292.01L334.32 289L335.55 285.92L336.67 282.79L337.66 279.61L338.53 276.37L339.27 273.08L339.89 269.75L340.37 266.37L340.61 264L278.62 264L278.35 264.76L277.86 265.91L277.32 267.03L276.72 268.11L276.07 269.16L275.37 270.17L274.61 271.14L273.81 272.08L272.97 272.97L272.08 273.81L271.14 274.61L270.17 275.37L269.16 276.07L268.11 276.72L267.03 277.32L265.91 277.86L264.76 278.35L263.58 278.78L262.38 279.14L261.15 279.45L259.89 279.69L258.61 279.86L257.32 279.96L256 280L254.68 279.96L253.39 279.86L252.11 279.69L250.85 279.45L249.62 279.14L248.42 278.78L247.24 278.35L246.09 277.86L244.97 277.32L243.89 276.72L242.84 276.07L241.83 275.37L240.86 274.61L239.92 273.81L239.03 272.97L238.19 272.08L237.39 271.14L236.63 270.17L235.93 269.16L235.28 268.11L234.68 267.03L234.14 265.91L233.65 264.76L233.22 263.58L232.86 262.38L232.55 261.15L232.31 259.89L232.14 258.61L232.04 257.32L232 256L232.04 254.68L232.14 253.39L232.31 252.11L232.55 250.85L232.86 249.62L233.22 248.42L233.65 247.24L234.14 246.09L234.68 244.97L235.28 243.89L235.93 242.84L236.63 241.83L237.39 240.86L238.19 239.92L239.03 239.03L239.92 238.19L240.86 237.39L241.83 236.63L242.84 235.93L243.89 235.28L244.97 234.68L246.09 234.14L247.24 233.65L248 233.38L248 171.62L245.6 171.86L242.21 172.34ZM264 233.38L264.76 233.65L265.91 234.14L267.03 234.68L268.11 235.28L269.16 235.93L270.17 236.63L271.14 237.39L272.08 238.19L272.97 239.03L273.81 239.92L274.61 240.86L275.37 241.83L276.07 242.84L276.72 243.89L277.32 244.97L277.86 246.09L278.35 247.24L278.62 248L340.61 248L340.37 245.63L339.89 242.25L339.27 238.92L338.53 235.63L337.66 232.39L336.67 229.21L335.55 226.08L334.32 223L332.97 219.99L331.51 217.04L329.94 214.16L328.26 211.35L326.48 208.61L324.6 205.94L322.62 203.35L320.54 200.83L318.37 198.4L316.1 196.06L313.75 193.8L311.32 191.64L308.8 189.56L306.2 187.59L303.52 185.71L300.77 183.93L297.95 182.26L295.06 180.69L292.1 179.24L289.08 177.89L286 176.66L282.87 175.55L279.67 174.56L276.43 173.69L273.13 172.95L269.79 172.34L266.4 171.86L264 171.62L264 233.38Z" id="b2a6jjoGwM"></path></defs><g><g><g><use xlink:href="#c3oPoqEu" opacity="1" fill="#f6f6f6" fill-opacity="1"></use></g><g><g><filter id="shadow9064993" x="-14" y="-14" width="546" height="546" filterUnits="userSpaceOnUse" primitiveUnits="userSpaceOnUse"><feFlood></feFlood><feComposite in2="SourceAlpha" operator="in"></feComposite><feGaussianBlur stdDeviation="4"></feGaussianBlur><feOffset dx="6" dy="6" result="afterOffset"></feOffset><feFlood flood-color="#000000" flood-opacity="0.5"></feFlood><feComposite in2="afterOffset" operator="in"></feComposite><feMorphology operator="dilate" radius="1"></feMorphology><feComposite in2="SourceAlpha" operator="out"></feComposite></filter><path d="M482 256C482 380.73 380.73 482 256 482C131.27 482 30 380.73 30 256C30 131.27 131.27 30 256 30C380.73 30 482 131.27 482 256Z" id="jFBjsKu6o" fill="white" fill-opacity="1" filter="url(#shadow9064993)"></path></g><use xlink:href="#b2wnh8lw1i" opacity="1" fill="url(#gradienti9If2tTiY)"></use></g><g><use xlink:href="#b2a6jjoGwM" opacity="1" fill="#f6f6f6" fill-opacity="1"></use><g><filter id="shadow11928380" x="43" y="85.85" width="432" height="346.31" filterUnits="userSpaceOnUse" primitiveUnits="userSpaceOnUse"><feFlood></feFlood><feComposite in2="SourceAlpha" operator="out"></feComposite><feGaussianBlur stdDeviation="4"></feGaussianBlur><feOffset dx="6" dy="6" result="afterOffset"></feOffset><feFlood flood-color="#000000" flood-opacity="0.5"></feFlood><feComposite in2="afterOffset" operator="in"></feComposite><feMorphology operator="dilate" radius="0"></feMorphology><feComposite in2="SourceAlpha" operator="in"></feComposite></filter><path d="M269.03 129.56L275.51 130.44L281.94 131.63L288.33 133.13L294.67 134.93L300.94 136.99L307.15 139.32L313.29 141.89L319.34 144.68L325.3 147.69L331.16 150.9L336.92 154.28L342.57 157.83L348.1 161.52L353.5 165.35L358.76 169.3L363.89 173.34L368.87 177.48L373.69 181.68L378.35 185.93L382.83 190.23L387.14 194.54L391.26 198.86L395.19 203.18L398.92 207.46L402.45 211.71L405.75 215.9L408.84 220.02L411.7 224.04L414.31 227.97L416.69 231.77L418.81 235.44L420.67 238.96L422.27 242.31L423.59 245.48L424.64 248.45L425.39 251.2L425.85 253.72L426 256L425.85 258.28L425.39 260.8L424.64 263.55L423.59 266.52L422.27 269.69L420.67 273.04L418.81 276.56L416.69 280.23L414.31 284.03L411.7 287.96L408.84 291.98L405.75 296.1L402.45 300.29L398.92 304.54L395.19 308.82L391.26 313.14L387.14 317.46L382.83 321.77L378.35 326.07L373.69 330.32L368.87 334.52L363.89 338.66L358.76 342.7L353.5 346.65L348.1 350.48L342.57 354.17L336.92 357.72L331.16 361.1L325.3 364.31L319.34 367.32L313.29 370.11L307.15 372.68L300.94 375.01L294.67 377.07L288.33 378.87L281.94 380.37L275.51 381.56L269.03 382.44L262.53 382.97L256 383.16L249.47 382.97L242.97 382.44L236.49 381.56L230.06 380.37L223.67 378.87L217.33 377.07L211.06 375.01L204.85 372.68L198.71 370.11L192.66 367.32L186.7 364.31L180.84 361.1L175.08 357.72L169.43 354.17L163.9 350.48L158.5 346.65L153.24 342.7L148.11 338.66L143.13 334.52L138.31 330.32L133.65 326.07L129.17 321.77L124.86 317.46L120.74 313.14L116.81 308.82L113.08 304.54L109.55 300.29L106.25 296.1L103.16 291.98L100.3 287.96L97.69 284.03L95.31 280.23L93.19 276.56L91.33 273.04L89.73 269.69L88.41 266.52L87.36 263.55L86.61 260.8L86.15 258.28L86 256L86.15 253.72L86.61 251.2L87.36 248.45L88.41 245.48L89.73 242.31L91.33 238.96L93.19 235.44L95.31 231.77L97.69 227.97L100.3 224.04L103.16 220.02L106.25 215.9L109.55 211.71L113.08 207.46L116.81 203.18L120.74 198.86L124.86 194.54L129.17 190.23L133.65 185.93L138.31 181.68L143.13 177.48L148.11 173.34L153.24 169.3L158.5 165.35L163.9 161.52L169.43 157.83L175.08 154.28L180.84 150.9L186.7 147.69L192.66 144.68L198.71 141.89L204.85 139.32L211.06 136.99L217.33 134.93L223.67 133.13L230.06 131.63L236.49 130.44L242.97 129.56L249.47 129.03L256 128.85L262.53 129.03L269.03 129.56ZM242.21 172.34L238.87 172.95L235.57 173.69L232.33 174.56L229.13 175.55L226 176.66L222.92 177.89L219.9 179.24L216.94 180.69L214.05 182.26L211.23 183.93L208.48 185.71L205.8 187.59L203.2 189.56L200.68 191.64L198.25 193.8L195.9 196.06L193.63 198.4L191.46 200.83L189.38 203.35L187.4 205.94L185.52 208.61L183.74 211.35L182.06 214.16L180.49 217.04L179.03 219.99L177.68 223L176.45 226.08L175.33 229.21L174.34 232.39L173.47 235.63L172.73 238.92L172.11 242.25L171.63 245.63L171.28 249.05L171.07 252.51L171 256L171.07 259.49L171.28 262.95L171.63 266.37L172.11 269.75L172.73 273.08L173.47 276.37L174.34 279.61L175.33 282.79L176.45 285.92L177.68 289L179.03 292.01L180.49 294.96L182.06 297.84L183.74 300.65L185.52 303.39L187.4 306.06L189.38 308.65L191.46 311.17L193.63 313.6L195.9 315.94L198.25 318.2L200.68 320.36L203.2 322.44L205.8 324.41L208.48 326.29L211.23 328.07L214.05 329.74L216.94 331.31L219.9 332.76L222.92 334.11L226 335.34L229.13 336.45L232.33 337.44L235.57 338.31L238.87 339.05L242.21 339.66L245.6 340.14L249.03 340.49L252.5 340.7L256 340.77L259.5 340.7L262.97 340.49L266.4 340.14L269.79 339.66L273.13 339.05L276.43 338.31L279.67 337.44L282.87 336.45L286 335.34L289.08 334.11L292.1 332.76L295.06 331.31L297.95 329.74L300.77 328.07L303.52 326.29L306.2 324.41L308.8 322.44L311.32 320.36L313.75 318.2L316.1 315.94L318.37 313.6L320.54 311.17L322.62 308.65L324.6 306.06L326.48 303.39L328.26 300.65L329.94 297.84L331.51 294.96L332.97 292.01L334.32 289L335.55 285.92L336.67 282.79L337.66 279.61L338.53 276.37L339.27 273.08L339.89 269.75L340.37 266.37L340.61 264L278.62 264L278.35 264.76L277.86 265.91L277.32 267.03L276.72 268.11L276.07 269.16L275.37 270.17L274.61 271.14L273.81 272.08L272.97 272.97L272.08 273.81L271.14 274.61L270.17 275.37L269.16 276.07L268.11 276.72L267.03 277.32L265.91 277.86L264.76 278.35L263.58 278.78L262.38 279.14L261.15 279.45L259.89 279.69L258.61 279.86L257.32 279.96L256 280L254.68 279.96L253.39 279.86L252.11 279.69L250.85 279.45L249.62 279.14L248.42 278.78L247.24 278.35L246.09 277.86L244.97 277.32L243.89 276.72L242.84 276.07L241.83 275.37L240.86 274.61L239.92 273.81L239.03 272.97L238.19 272.08L237.39 271.14L236.63 270.17L235.93 269.16L235.28 268.11L234.68 267.03L234.14 265.91L233.65 264.76L233.22 263.58L232.86 262.38L232.55 261.15L232.31 259.89L232.14 258.61L232.04 257.32L232 256L232.04 254.68L232.14 253.39L232.31 252.11L232.55 250.85L232.86 249.62L233.22 248.42L233.65 247.24L234.14 246.09L234.68 244.97L235.28 243.89L235.93 242.84L236.63 241.83L237.39 240.86L238.19 239.92L239.03 239.03L239.92 238.19L240.86 237.39L241.83 236.63L242.84 235.93L243.89 235.28L244.97 234.68L246.09 234.14L247.24 233.65L248 233.38L248 171.62L245.6 171.86L242.21 172.34ZM264 233.38L264.76 233.65L265.91 234.14L267.03 234.68L268.11 235.28L269.16 235.93L270.17 236.63L271.14 237.39L272.08 238.19L272.97 239.03L273.81 239.92L274.61 240.86L275.37 241.83L276.07 242.84L276.72 243.89L277.32 244.97L277.86 246.09L278.35 247.24L278.62 248L340.61 248L340.37 245.63L339.89 242.25L339.27 238.92L338.53 235.63L337.66 232.39L336.67 229.21L335.55 226.08L334.32 223L332.97 219.99L331.51 217.04L329.94 214.16L328.26 211.35L326.48 208.61L324.6 205.94L322.62 203.35L320.54 200.83L318.37 198.4L316.1 196.06L313.75 193.8L311.32 191.64L308.8 189.56L306.2 187.59L303.52 185.71L300.77 183.93L297.95 182.26L295.06 180.69L292.1 179.24L289.08 177.89L286 176.66L282.87 175.55L279.67 174.56L276.43 173.69L273.13 172.95L269.79 172.34L266.4 171.86L264 171.62L264 233.38Z" id="c1j5w8xKJK" fill="white" fill-opacity="1" filter="url(#shadow11928380)"></path></g></g></g></g></svg>