<?xml version="1.0" encoding="UTF-8" standalone="no"?>
<!DOCTYPE svg PUBLIC "-//W3C//DTD SVG 1.1//EN" "http://www.w3.org/Graphics/SVG/1.1/DTD/svg11.dtd">
<svg version="1.1" xmlns="http://www.w3.org/2000/svg" xmlns:xlink="http://www.w3.org/1999/xlink" preserveAspectRatio="xMidYMid meet" viewBox="0 0 512 512" width="512" height="512"><defs><path d="M492 256C492 386.25 386.25 492 256 492C125.75 492 20 386.25 20 256C20 125.75 125.75 20 256 20C386.25 20 492 125.75 492 256Z" id="a1dkIePDyo"></path><linearGradient id="gradientdwGEmdRl5" gradientUnits="userSpaceOnUse" x1="0" y1="0" x2="256" y2="256"><stop style="stop-color: #f6f6f6;stop-opacity: 1" offset="0%"></stop><stop style="stop-color: #eeeeee;stop-opacity: 1" offset="100%"></stop></linearGradient><path d="M472 256C472 375.21 375.21 472 256 472C136.79 472 40 375.21 40 256C40 136.79 136.79 40 256 40C375.21 40 472 136.79 472 256Z" id="aOTeK7xb"></path><linearGradient id="gradientcqLCn1FYS" gradientUnits="userSpaceOnUse" x1="7.51" y1="11.33" x2="256" y2="256"><stop style="stop-color: #606060;stop-opacity: 1" offset="0%"></stop><stop style="stop-color: #2b2b2b;stop-opacity: 1" offset="100%"></stop></linearGradient><path d="M268.42 135.51L274.59 136.34L280.72 137.48L286.81 138.91L292.85 140.62L298.83 142.58L304.75 144.8L310.59 147.25L316.36 149.92L322.03 152.78L327.62 155.83L333.11 159.06L338.49 162.44L343.76 165.97L348.91 169.61L353.93 173.37L358.81 177.23L363.55 181.17L368.15 185.17L372.59 189.23L376.86 193.32L380.97 197.43L384.9 201.55L388.64 205.66L392.2 209.74L395.55 213.79L398.71 217.78L401.65 221.7L404.37 225.55L406.86 229.29L409.13 232.91L411.15 236.4L412.92 239.76L414.44 242.95L415.71 245.97L416.7 248.8L417.42 251.42L417.85 253.83L418 256L417.85 258.17L417.42 260.57L416.7 263.2L415.71 266.03L414.44 269.05L412.92 272.23L411.15 275.59L409.13 279.08L406.86 282.71L404.37 286.45L401.65 290.29L398.71 294.21L395.55 298.21L392.2 302.25L388.64 306.34L384.9 310.44L380.97 314.56L376.86 318.68L372.59 322.77L368.15 326.82L363.55 330.83L358.81 334.76L353.93 338.62L348.91 342.38L343.76 346.03L338.49 349.55L333.11 352.93L327.62 356.16L322.03 359.21L316.36 362.08L310.59 364.74L304.75 367.19L298.83 369.41L292.85 371.38L286.81 373.09L280.72 374.52L274.59 375.66L268.42 376.49L262.22 377L256 377.18L249.78 377L243.58 376.49L237.41 375.66L231.28 374.52L225.19 373.09L219.15 371.38L213.17 369.41L207.25 367.19L201.41 364.74L195.64 362.08L189.97 359.21L184.38 356.16L178.89 352.93L173.51 349.55L168.24 346.03L163.09 342.38L158.07 338.62L153.19 334.76L148.45 330.83L143.85 326.82L139.41 322.77L135.14 318.68L131.03 314.56L127.1 310.44L123.36 306.34L119.8 302.25L116.45 298.21L113.29 294.21L110.35 290.29L107.63 286.45L105.14 282.71L102.87 279.08L100.85 275.59L99.08 272.23L97.56 269.05L96.29 266.03L95.3 263.2L94.58 260.57L94.15 258.17L94 256L94.15 253.83L94.58 251.42L95.3 248.8L96.29 245.97L97.56 242.95L99.08 239.76L100.85 236.4L102.87 232.91L105.14 229.29L107.63 225.55L110.35 221.7L113.29 217.78L116.45 213.79L119.8 209.74L123.36 205.66L127.1 201.55L131.03 197.43L135.14 193.32L139.41 189.23L143.85 185.17L148.45 181.17L153.19 177.23L158.07 173.37L163.09 169.61L168.24 165.97L173.51 162.44L178.89 159.06L184.38 155.83L189.97 152.78L195.64 149.92L201.41 147.25L207.25 144.8L213.17 142.58L219.15 140.62L225.19 138.91L231.28 137.48L237.41 136.34L243.58 135.51L249.78 135L256 134.82L262.22 135L268.42 135.51ZM242.86 176.27L239.67 176.86L236.53 177.56L233.44 178.39L230.4 179.33L227.41 180.39L224.47 181.56L221.59 182.84L218.78 184.23L216.03 185.72L213.34 187.32L210.72 189.01L208.17 190.8L205.69 192.68L203.29 194.66L200.96 196.73L198.72 198.87L196.57 201.11L194.5 203.42L192.52 205.82L190.63 208.29L188.83 210.83L187.14 213.45L185.54 216.13L184.04 218.88L182.65 221.69L181.37 224.55L180.19 227.48L179.13 230.46L178.18 233.5L177.35 236.58L176.65 239.71L176.06 242.89L175.6 246.11L175.27 249.37L175.07 252.67L175 256L175.07 259.33L175.27 262.62L175.6 265.88L176.06 269.1L176.65 272.28L177.35 275.41L178.18 278.49L179.13 281.53L180.19 284.51L181.37 287.44L182.65 290.31L184.04 293.12L185.54 295.86L187.14 298.55L188.83 301.16L190.63 303.7L192.52 306.17L194.5 308.57L196.57 310.88L198.72 313.12L200.96 315.27L203.29 317.34L205.69 319.31L208.17 321.2L210.72 322.98L213.34 324.68L216.03 326.27L218.78 327.76L221.59 329.15L224.47 330.43L227.41 331.6L230.4 332.66L233.44 333.61L236.53 334.43L239.67 335.14L242.86 335.73L246.09 336.18L249.36 336.51L252.66 336.71L256 336.78L259.34 336.71L262.64 336.51L265.91 336.18L269.14 335.73L272.33 335.14L275.47 334.43L278.56 333.61L281.6 332.66L284.59 331.6L287.53 330.43L290.41 329.15L293.22 327.76L295.97 326.27L298.66 324.68L301.28 322.98L303.83 321.2L306.31 319.31L308.71 317.34L311.04 315.27L313.28 313.12L315.43 310.88L317.5 308.57L319.48 306.17L321.37 303.7L323.17 301.16L324.86 298.55L326.46 295.86L327.96 293.12L329.35 290.31L330.63 287.44L331.81 284.51L332.87 281.53L333.82 278.49L334.65 275.41L335.35 272.28L335.94 269.1L336.4 265.88L336.63 263.62L277.56 263.62L277.4 264.07L277.07 264.89L276.71 265.71L276.31 266.5L275.9 267.28L275.44 268.04L274.97 268.78L274.45 269.5L273.92 270.2L273.36 270.88L272.78 271.53L272.17 272.17L271.54 272.77L270.88 273.36L270.2 273.92L269.5 274.45L268.78 274.96L268.04 275.44L267.28 275.89L266.5 276.32L265.71 276.71L264.9 277.07L264.07 277.4L263.23 277.7L262.37 277.97L261.49 278.2L260.61 278.4L259.71 278.57L258.8 278.7L257.87 278.79L256.94 278.85L256 278.87L255.06 278.85L254.13 278.79L253.2 278.7L252.29 278.57L251.39 278.4L250.51 278.2L249.63 277.97L248.77 277.7L247.93 277.4L247.1 277.07L246.29 276.71L245.5 276.32L244.72 275.89L243.96 275.44L243.22 274.96L242.5 274.45L241.8 273.92L241.12 273.36L240.46 272.77L239.83 272.17L239.22 271.53L238.64 270.88L238.08 270.2L237.55 269.5L237.03 268.78L236.56 268.04L236.1 267.28L235.69 266.5L235.29 265.71L234.93 264.89L234.6 264.07L234.29 263.22L234.03 262.36L233.79 261.49L233.59 260.6L233.43 259.71L233.3 258.79L233.21 257.87L233.15 256.94L233.13 256L233.15 255.05L233.21 254.12L233.3 253.2L233.43 252.29L233.59 251.39L233.79 250.5L234.03 249.63L234.29 248.77L234.6 247.93L234.93 247.1L235.29 246.28L235.69 245.49L236.1 244.71L236.56 243.95L237.03 243.21L237.55 242.49L238.08 241.8L238.64 241.11L239.22 240.46L239.83 239.83L240.46 239.22L241.12 238.63L241.8 238.08L242.5 237.54L243.22 237.03L243.96 236.56L244.72 236.1L245.5 235.68L246.29 235.28L247.1 234.92L247.93 234.59L248.37 234.44L248.37 175.58L246.09 175.81L242.86 176.27ZM264.07 234.59L264.9 234.92L265.71 235.28L266.5 235.68L267.28 236.1L268.04 236.56L268.78 237.03L269.5 237.54L270.2 238.08L270.88 238.63L271.54 239.22L272.17 239.83L272.78 240.46L273.36 241.11L273.92 241.8L274.45 242.49L274.97 243.21L275.44 243.95L275.9 244.71L276.31 245.49L276.71 246.28L277.07 247.1L277.4 247.93L277.56 248.37L336.63 248.37L336.4 246.11L335.94 242.89L335.35 239.71L334.65 236.58L333.82 233.5L332.87 230.46L331.81 227.48L330.63 224.55L329.35 221.69L327.96 218.88L326.46 216.13L324.86 213.45L323.17 210.83L321.37 208.29L319.48 205.82L317.5 203.42L315.43 201.11L313.28 198.87L311.04 196.73L308.71 194.66L306.31 192.68L303.83 190.8L301.28 189.01L298.66 187.32L295.97 185.72L293.22 184.23L290.41 182.84L287.53 181.56L284.59 180.39L281.6 179.33L278.56 178.39L275.47 177.56L272.33 176.86L269.14 176.27L265.91 175.81L263.63 175.58L263.63 234.44L264.07 234.59Z" id="b2sXid3tGi"></path><linearGradient id="gradientb6dIRBZxxh" gradientUnits="userSpaceOnUse" x1="0" y1="0" x2="256" y2="256"><stop style="stop-color: #f6f6f6;stop-opacity: 1" offset="0%"></stop><stop style="stop-color: #eeeeee;stop-opacity: 1" offset="100%"></stop></linearGradient></defs><g><g><g><use xlink:href="#a1dkIePDyo" opacity="1" fill="url(#gradientdwGEmdRl5)"></use></g><g><g><filter id="shadow15769440" x="-4" y="-4" width="526" height="526" filterUnits="userSpaceOnUse" primitiveUnits="userSpaceOnUse"><feFlood></feFlood><feComposite in2="SourceAlpha" operator="in"></feComposite><feGaussianBlur stdDeviation="4"></feGaussianBlur><feOffset dx="6" dy="6" result="afterOffset"></feOffset><feFlood flood-color="#000000" flood-opacity="0.5"></feFlood><feComposite in2="afterOffset" operator="in"></feComposite><feMorphology operator="dilate" radius="1"></feMorphology><feComposite in2="SourceAlpha" operator="out"></feComposite></filter><path d="M472 256C472 375.21 375.21 472 256 472C136.79 472 40 375.21 40 256C40 136.79 136.79 40 256 40C375.21 40 472 136.79 472 256Z" id="aXB7s6be7" fill="white" fill-opacity="1" filter="url(#shadow15769440)"></path></g><use xlink:href="#aOTeK7xb" opacity="1" fill="url(#gradientcqLCn1FYS)"></use></g><g><use xlink:href="#b2sXid3tGi" opacity="1" fill="url(#gradientb6dIRBZxxh)"></use><g><use xlink:href="#b2sXid3tGi" opacity="1" fill-opacity="0" stroke="#000000" stroke-width="1" stroke-opacity="0"></use></g><g><filter id="shadow12840307" x="51" y="91.82" width="416" height="334.35" filterUnits="userSpaceOnUse" primitiveUnits="userSpaceOnUse"><feFlood></feFlood><feComposite in2="SourceAlpha" operator="out"></feComposite><feGaussianBlur stdDeviation="4"></feGaussianBlur><feOffset dx="6" dy="6" result="afterOffset"></feOffset><feFlood flood-color="#000000" flood-opacity="0.5"></feFlood><feComposite in2="afterOffset" operator="in"></feComposite><feMorphology operator="dilate" radius="0"></feMorphology><feComposite in2="SourceAlpha" operator="in"></feComposite></filter><path d="M268.42 135.51L274.59 136.34L280.72 137.48L286.81 138.91L292.85 140.62L298.83 142.58L304.75 144.8L310.59 147.25L316.36 149.92L322.03 152.78L327.62 155.83L333.11 159.06L338.49 162.44L343.76 165.97L348.91 169.61L353.93 173.37L358.81 177.23L363.55 181.17L368.15 185.17L372.59 189.23L376.86 193.32L380.97 197.43L384.9 201.55L388.64 205.66L392.2 209.74L395.55 213.79L398.71 217.78L401.65 221.7L404.37 225.55L406.86 229.29L409.13 232.91L411.15 236.4L412.92 239.76L414.44 242.95L415.71 245.97L416.7 248.8L417.42 251.42L417.85 253.83L418 256L417.85 258.17L417.42 260.57L416.7 263.2L415.71 266.03L414.44 269.05L412.92 272.23L411.15 275.59L409.13 279.08L406.86 282.71L404.37 286.45L401.65 290.29L398.71 294.21L395.55 298.21L392.2 302.25L388.64 306.34L384.9 310.44L380.97 314.56L376.86 318.68L372.59 322.77L368.15 326.82L363.55 330.83L358.81 334.76L353.93 338.62L348.91 342.38L343.76 346.03L338.49 349.55L333.11 352.93L327.62 356.16L322.03 359.21L316.36 362.08L310.59 364.74L304.75 367.19L298.83 369.41L292.85 371.38L286.81 373.09L280.72 374.52L274.59 375.66L268.42 376.49L262.22 377L256 377.18L249.78 377L243.58 376.49L237.41 375.66L231.28 374.52L225.19 373.09L219.15 371.38L213.17 369.41L207.25 367.19L201.41 364.74L195.64 362.08L189.97 359.21L184.38 356.16L178.89 352.93L173.51 349.55L168.24 346.03L163.09 342.38L158.07 338.62L153.19 334.76L148.45 330.83L143.85 326.82L139.41 322.77L135.14 318.68L131.03 314.56L127.1 310.44L123.36 306.34L119.8 302.25L116.45 298.21L113.29 294.21L110.35 290.29L107.63 286.45L105.14 282.71L102.87 279.08L100.85 275.59L99.08 272.23L97.56 269.05L96.29 266.03L95.3 263.2L94.58 260.57L94.15 258.17L94 256L94.15 253.83L94.58 251.42L95.3 248.8L96.29 245.97L97.56 242.95L99.08 239.76L100.85 236.4L102.87 232.91L105.14 229.29L107.63 225.55L110.35 221.7L113.29 217.78L116.45 213.79L119.8 209.74L123.36 205.66L127.1 201.55L131.03 197.43L135.14 193.32L139.41 189.23L143.85 185.17L148.45 181.17L153.19 177.23L158.07 173.37L163.09 169.61L168.24 165.97L173.51 162.44L178.89 159.06L184.38 155.83L189.97 152.78L195.64 149.92L201.41 147.25L207.25 144.8L213.17 142.58L219.15 140.62L225.19 138.91L231.28 137.48L237.41 136.34L243.58 135.51L249.78 135L256 134.82L262.22 135L268.42 135.51ZM242.86 176.27L239.67 176.86L236.53 177.56L233.44 178.39L230.4 179.33L227.41 180.39L224.47 181.56L221.59 182.84L218.78 184.23L216.03 185.72L213.34 187.32L210.72 189.01L208.17 190.8L205.69 192.68L203.29 194.66L200.96 196.73L198.72 198.87L196.57 201.11L194.5 203.42L192.52 205.82L190.63 208.29L188.83 210.83L187.14 213.45L185.54 216.13L184.04 218.88L182.65 221.69L181.37 224.55L180.19 227.48L179.13 230.46L178.18 233.5L177.35 236.58L176.65 239.71L176.06 242.89L175.6 246.11L175.27 249.37L175.07 252.67L175 256L175.07 259.33L175.27 262.62L175.6 265.88L176.06 269.1L176.65 272.28L177.35 275.41L178.18 278.49L179.13 281.53L180.19 284.51L181.37 287.44L182.65 290.31L184.04 293.12L185.54 295.86L187.14 298.55L188.83 301.16L190.63 303.7L192.52 306.17L194.5 308.57L196.57 310.88L198.72 313.12L200.96 315.27L203.29 317.34L205.69 319.31L208.17 321.2L210.72 322.98L213.34 324.68L216.03 326.27L218.78 327.76L221.59 329.15L224.47 330.43L227.41 331.6L230.4 332.66L233.44 333.61L236.53 334.43L239.67 335.14L242.86 335.73L246.09 336.18L249.36 336.51L252.66 336.71L256 336.78L259.34 336.71L262.64 336.51L265.91 336.18L269.14 335.73L272.33 335.14L275.47 334.43L278.56 333.61L281.6 332.66L284.59 331.6L287.53 330.43L290.41 329.15L293.22 327.76L295.97 326.27L298.66 324.68L301.28 322.98L303.83 321.2L306.31 319.31L308.71 317.34L311.04 315.27L313.28 313.12L315.43 310.88L317.5 308.57L319.48 306.17L321.37 303.7L323.17 301.16L324.86 298.55L326.46 295.86L327.96 293.12L329.35 290.31L330.63 287.44L331.81 284.51L332.87 281.53L333.82 278.49L334.65 275.41L335.35 272.28L335.94 269.1L336.4 265.88L336.63 263.62L277.56 263.62L277.4 264.07L277.07 264.89L276.71 265.71L276.31 266.5L275.9 267.28L275.44 268.04L274.97 268.78L274.45 269.5L273.92 270.2L273.36 270.88L272.78 271.53L272.17 272.17L271.54 272.77L270.88 273.36L270.2 273.92L269.5 274.45L268.78 274.96L268.04 275.44L267.28 275.89L266.5 276.32L265.71 276.71L264.9 277.07L264.07 277.4L263.23 277.7L262.37 277.97L261.49 278.2L260.61 278.4L259.71 278.57L258.8 278.7L257.87 278.79L256.94 278.85L256 278.87L255.06 278.85L254.13 278.79L253.2 278.7L252.29 278.57L251.39 278.4L250.51 278.2L249.63 277.97L248.77 277.7L247.93 277.4L247.1 277.07L246.29 276.71L245.5 276.32L244.72 275.89L243.96 275.44L243.22 274.96L242.5 274.45L241.8 273.92L241.12 273.36L240.46 272.77L239.83 272.17L239.22 271.53L238.64 270.88L238.08 270.2L237.55 269.5L237.03 268.78L236.56 268.04L236.1 267.28L235.69 266.5L235.29 265.71L234.93 264.89L234.6 264.07L234.29 263.22L234.03 262.36L233.79 261.49L233.59 260.6L233.43 259.71L233.3 258.79L233.21 257.87L233.15 256.94L233.13 256L233.15 255.05L233.21 254.12L233.3 253.2L233.43 252.29L233.59 251.39L233.79 250.5L234.03 249.63L234.29 248.77L234.6 247.93L234.93 247.1L235.29 246.28L235.69 245.49L236.1 244.71L236.56 243.95L237.03 243.21L237.55 242.49L238.08 241.8L238.64 241.11L239.22 240.46L239.83 239.83L240.46 239.22L241.12 238.63L241.8 238.08L242.5 237.54L243.22 237.03L243.96 236.56L244.72 236.1L245.5 235.68L246.29 235.28L247.1 234.92L247.93 234.59L248.37 234.44L248.37 175.58L246.09 175.81L242.86 176.27ZM264.07 234.59L264.9 234.92L265.71 235.28L266.5 235.68L267.28 236.1L268.04 236.56L268.78 237.03L269.5 237.54L270.2 238.08L270.88 238.63L271.54 239.22L272.17 239.83L272.78 240.46L273.36 241.11L273.92 241.8L274.45 242.49L274.97 243.21L275.44 243.95L275.9 244.71L276.31 245.49L276.71 246.28L277.07 247.1L277.4 247.93L277.56 248.37L336.63 248.37L336.4 246.11L335.94 242.89L335.35 239.71L334.65 236.58L333.82 233.5L332.87 230.46L331.81 227.48L330.63 224.55L329.35 221.69L327.96 218.88L326.46 216.13L324.86 213.45L323.17 210.83L321.37 208.29L319.48 205.82L317.5 203.42L315.43 201.11L313.28 198.87L311.04 196.73L308.71 194.66L306.31 192.68L303.83 190.8L301.28 189.01L298.66 187.32L295.97 185.72L293.22 184.23L290.41 182.84L287.53 181.56L284.59 180.39L281.6 179.33L278.56 178.39L275.47 177.56L272.33 176.86L269.14 176.27L265.91 175.81L263.63 175.58L263.63 234.44L264.07 234.59Z" id="b47bBcDirT" fill="white" fill-opacity="1" filter="url(#shadow12840307)"></path></g></g></g></g></svg>