<?xml version="1.0" encoding="UTF-8" standalone="no"?>
<!DOCTYPE svg PUBLIC "-//W3C//DTD SVG 1.1//EN" "http://www.w3.org/Graphics/SVG/1.1/DTD/svg11.dtd">
<svg version="1.1" xmlns="http://www.w3.org/2000/svg" xmlns:xlink="http://www.w3.org/1999/xlink" preserveAspectRatio="xMidYMid meet" viewBox="0 0 512 512" width="512" height="512"><defs><path d="M275.63 65.6L285.37 66.91L295.07 68.71L304.69 70.97L314.23 73.67L323.68 76.78L333.03 80.29L342.27 84.16L351.38 88.37L360.35 92.9L369.18 97.72L377.86 102.82L386.36 108.16L394.68 113.73L402.82 119.49L410.75 125.43L418.47 131.53L425.96 137.75L433.22 144.08L440.24 150.49L446.99 156.95L453.48 163.45L459.69 169.96L465.61 176.45L471.23 182.91L476.53 189.3L481.51 195.61L486.16 201.81L490.46 207.88L494.4 213.79L497.98 219.52L501.17 225.04L503.98 230.34L506.38 235.38L508.38 240.15L509.94 244.62L511.08 248.77L511.77 252.57L512 256L511.77 259.43L511.08 263.23L509.94 267.38L508.38 271.85L506.38 276.62L503.98 281.66L501.17 286.96L497.98 292.48L494.4 298.21L490.46 304.12L486.16 310.19L481.51 316.39L476.53 322.7L471.23 329.09L465.61 335.55L459.69 342.04L453.48 348.55L446.99 355.05L440.24 361.51L433.22 367.92L425.96 374.25L418.47 380.47L410.75 386.57L402.82 392.51L394.68 398.27L386.36 403.84L377.86 409.18L369.18 414.28L360.35 419.1L351.38 423.63L342.27 427.84L333.03 431.71L323.68 435.22L314.23 438.33L304.69 441.03L295.07 443.29L285.37 445.09L275.63 446.4L265.83 447.21L256 447.49L246.17 447.21L236.37 446.4L226.63 445.09L216.93 443.29L207.31 441.03L197.77 438.33L188.32 435.22L178.97 431.71L169.73 427.84L160.62 423.63L151.65 419.1L142.82 414.28L134.14 409.18L125.64 403.84L117.32 398.27L109.18 392.51L101.25 386.57L93.53 380.47L86.04 374.25L78.78 367.92L71.76 361.51L65.01 355.05L58.52 348.55L52.31 342.04L46.39 335.55L40.77 329.09L35.47 322.7L30.49 316.39L25.84 310.19L21.54 304.12L17.6 298.21L14.02 292.48L10.83 286.96L8.02 281.66L5.62 276.62L3.62 271.85L2.06 267.38L0.92 263.23L0.23 259.43L0 256L0.23 252.57L0.92 248.77L2.06 244.62L3.62 240.15L5.62 235.38L8.02 230.34L10.83 225.04L14.02 219.52L17.6 213.79L21.54 207.88L25.84 201.81L30.49 195.61L35.47 189.3L40.77 182.91L46.39 176.45L52.31 169.96L58.52 163.45L65.01 156.95L71.76 150.49L78.78 144.08L86.04 137.75L93.53 131.53L101.25 125.43L109.18 119.49L117.32 113.73L125.64 108.16L134.14 102.82L142.82 97.72L151.65 92.9L160.62 88.37L169.73 84.16L178.97 80.29L188.32 76.78L197.77 73.67L207.31 70.97L216.93 68.71L226.63 66.91L236.37 65.6L246.17 64.79L256 64.52L265.83 64.79L275.63 65.6ZM235.24 130.01L230.2 130.94L225.24 132.05L220.35 133.36L215.54 134.85L210.82 136.53L206.18 138.38L201.63 140.4L197.18 142.59L192.83 144.95L188.58 147.47L184.44 150.15L180.41 152.97L176.49 155.95L172.7 159.07L169.03 162.34L165.49 165.73L162.08 169.27L158.81 172.92L155.68 176.71L152.7 180.61L149.86 184.63L147.18 188.76L144.65 193L142.29 197.34L140.09 201.78L138.06 206.31L136.2 210.94L134.53 215.65L133.03 220.45L131.72 225.32L130.6 230.27L129.68 235.29L128.95 240.38L128.42 245.53L128.11 250.74L128 256L128.11 261.26L128.42 266.47L128.95 271.62L129.68 276.71L130.6 281.73L131.72 286.68L133.03 291.55L134.53 296.35L136.2 301.06L138.06 305.69L140.09 310.22L142.29 314.66L144.65 319L147.18 323.24L149.86 327.37L152.7 331.39L155.68 335.29L158.81 339.08L162.08 342.73L165.49 346.27L169.03 349.66L172.7 352.93L176.49 356.05L180.41 359.03L184.44 361.85L188.58 364.53L192.83 367.05L197.18 369.41L201.63 371.6L206.18 373.62L210.82 375.47L215.54 377.15L220.35 378.64L225.24 379.95L230.2 381.06L235.24 381.99L240.34 382.71L245.5 383.23L250.72 383.55L256 383.66L261.28 383.55L266.5 383.23L271.66 382.71L276.76 381.99L281.8 381.06L286.76 379.95L291.65 378.64L296.46 377.15L301.18 375.47L305.82 373.62L310.37 371.6L314.82 369.41L319.17 367.05L323.42 364.53L327.56 361.85L331.59 359.03L335.51 356.05L339.3 352.93L342.97 349.66L346.51 346.27L349.92 342.73L353.19 339.08L356.32 335.29L359.3 331.39L362.14 327.37L364.82 323.24L367.35 319L369.71 314.66L371.91 310.22L373.94 305.69L375.8 301.06L377.47 296.35L378.97 291.55L380.28 286.68L381.4 281.73L382.32 276.71L383.05 271.62L383.42 268.05L290.07 268.05L289.82 268.75L289.3 270.06L288.73 271.35L288.1 272.6L287.44 273.83L286.72 275.03L285.97 276.2L285.16 277.34L284.32 278.44L283.44 279.52L282.51 280.55L281.55 281.55L280.55 282.51L279.51 283.44L278.44 284.32L277.34 285.16L276.2 285.97L275.03 286.72L273.83 287.44L272.6 288.11L271.35 288.73L270.06 289.3L268.75 289.82L267.42 290.3L266.06 290.72L264.68 291.09L263.28 291.41L261.86 291.67L260.42 291.87L258.96 292.02L257.49 292.11L256 292.14L254.51 292.11L253.04 292.02L251.58 291.87L250.14 291.67L248.72 291.41L247.32 291.09L245.94 290.72L244.58 290.3L243.25 289.82L241.94 289.3L240.65 288.73L239.4 288.11L238.17 287.44L236.97 286.72L235.8 285.97L234.66 285.16L233.56 284.32L232.49 283.44L231.45 282.51L230.45 281.55L229.49 280.55L228.56 279.52L227.68 278.44L226.84 277.34L226.03 276.2L225.28 275.03L224.56 273.83L223.9 272.6L223.27 271.35L222.7 270.06L222.18 268.75L221.7 267.42L221.28 266.06L220.91 264.68L220.59 263.28L220.33 261.86L220.13 260.42L219.98 258.96L219.89 257.49L219.86 256L219.89 254.51L219.98 253.04L220.13 251.58L220.33 250.14L220.59 248.72L220.91 247.32L221.28 245.94L221.7 244.58L222.18 243.25L222.7 241.94L223.27 240.65L223.9 239.4L224.56 238.17L225.28 236.97L226.03 235.8L226.84 234.66L227.68 233.56L228.56 232.48L229.49 231.45L230.45 230.45L231.45 229.49L232.49 228.56L233.56 227.68L234.66 226.84L235.8 226.03L236.97 225.28L238.17 224.56L239.4 223.89L240.65 223.27L241.94 222.7L243.25 222.18L243.95 221.93L243.95 128.92L240.34 129.29L235.24 130.01ZM268.05 221.93L268.75 222.18L270.06 222.7L271.35 223.27L272.6 223.89L273.83 224.56L275.03 225.28L276.2 226.03L277.34 226.84L278.44 227.68L279.51 228.56L280.55 229.49L281.55 230.45L282.51 231.45L283.44 232.48L284.32 233.56L285.16 234.66L285.97 235.8L286.72 236.97L287.44 238.17L288.1 239.4L288.73 240.65L289.3 241.94L289.82 243.25L290.07 243.95L383.41 243.95L383.05 240.38L382.32 235.29L381.4 230.27L380.28 225.32L378.97 220.45L377.47 215.65L375.8 210.94L373.94 206.31L371.91 201.78L369.71 197.34L367.35 193L364.82 188.76L362.14 184.63L359.3 180.61L356.32 176.71L353.19 172.92L349.92 169.27L346.51 165.73L342.97 162.34L339.3 159.07L335.51 155.95L331.59 152.97L327.56 150.15L323.42 147.47L319.17 144.95L314.82 142.59L310.37 140.4L305.82 138.38L301.18 136.53L296.46 134.85L291.65 133.36L286.76 132.05L281.8 130.94L276.76 130.01L271.66 129.29L268.05 128.92L268.05 221.93Z" id="b4iLvV8u9g"></path></defs><g><g><g><use xlink:href="#b4iLvV8u9g" opacity="1" fill="#000000" fill-opacity="1"></use></g></g></g></svg>